<mxfile host="app.diagrams.net" modified="2023-05-11T06:23:16.578Z" agent="Mozilla/5.0 (Windows NT 10.0; Win64; x64; rv:109.0) Gecko/20100101 Firefox/113.0" etag="PAJcNd7I9O22PrFRhpwh" version="21.2.9" type="github">
  <diagram name="Page-1" id="xoFOXHleoGJlPl66YuSh">
    <mxGraphModel dx="1420" dy="706" grid="0" gridSize="10" guides="1" tooltips="1" connect="1" arrows="1" fold="1" page="0" pageScale="1" pageWidth="850" pageHeight="1100" math="0" shadow="0">
      <root>
        <mxCell id="0" />
        <mxCell id="1" parent="0" />
        <mxCell id="9GOgxKpE9WdlAdHBGfbr-1" value="MQTT broker" style="rounded=0;whiteSpace=wrap;html=1;" vertex="1" parent="1">
          <mxGeometry x="260" y="188" width="133" height="92" as="geometry" />
        </mxCell>
        <mxCell id="9GOgxKpE9WdlAdHBGfbr-2" value="Mobile" style="html=1;verticalLabelPosition=bottom;align=center;labelBackgroundColor=#ffffff;verticalAlign=top;strokeWidth=2;strokeColor=#0080F0;shadow=0;dashed=0;shape=mxgraph.ios7.icons.smartphone;" vertex="1" parent="1">
          <mxGeometry x="454" y="410" width="96" height="160" as="geometry" />
        </mxCell>
        <mxCell id="9GOgxKpE9WdlAdHBGfbr-6" value="ada DashBoard" style="rounded=0;whiteSpace=wrap;html=1;" vertex="1" parent="1">
          <mxGeometry x="125" y="385" width="140" height="93" as="geometry" />
        </mxCell>
        <mxCell id="9GOgxKpE9WdlAdHBGfbr-7" style="edgeStyle=orthogonalEdgeStyle;rounded=0;orthogonalLoop=1;jettySize=auto;html=1;exitX=0.5;exitY=1;exitDx=0;exitDy=0;" edge="1" parent="1" source="9GOgxKpE9WdlAdHBGfbr-6" target="9GOgxKpE9WdlAdHBGfbr-6">
          <mxGeometry relative="1" as="geometry" />
        </mxCell>
        <mxCell id="9GOgxKpE9WdlAdHBGfbr-8" value="" style="endArrow=classic;startArrow=classic;html=1;rounded=0;entryX=0.75;entryY=1;entryDx=0;entryDy=0;exitX=0.458;exitY=-0.002;exitDx=0;exitDy=0;exitPerimeter=0;" edge="1" parent="1" source="9GOgxKpE9WdlAdHBGfbr-2" target="9GOgxKpE9WdlAdHBGfbr-1">
          <mxGeometry width="50" height="50" relative="1" as="geometry">
            <mxPoint x="710" y="430" as="sourcePoint" />
            <mxPoint x="760" y="380" as="targetPoint" />
          </mxGeometry>
        </mxCell>
        <mxCell id="9GOgxKpE9WdlAdHBGfbr-9" value="" style="endArrow=classic;startArrow=classic;html=1;rounded=0;entryX=0.25;entryY=1;entryDx=0;entryDy=0;exitX=0.5;exitY=0;exitDx=0;exitDy=0;" edge="1" parent="1" source="9GOgxKpE9WdlAdHBGfbr-6" target="9GOgxKpE9WdlAdHBGfbr-1">
          <mxGeometry width="50" height="50" relative="1" as="geometry">
            <mxPoint x="487" y="408" as="sourcePoint" />
            <mxPoint x="383" y="290" as="targetPoint" />
          </mxGeometry>
        </mxCell>
        <mxCell id="9GOgxKpE9WdlAdHBGfbr-10" value="subscribe" style="text;html=1;align=center;verticalAlign=middle;resizable=0;points=[];autosize=1;strokeColor=none;fillColor=none;" vertex="1" parent="1">
          <mxGeometry x="219" y="359" width="70" height="30" as="geometry" />
        </mxCell>
        <mxCell id="9GOgxKpE9WdlAdHBGfbr-11" value="realtime log" style="text;html=1;align=center;verticalAlign=middle;resizable=0;points=[];autosize=1;strokeColor=none;fillColor=none;" vertex="1" parent="1">
          <mxGeometry x="522" y="293" width="78" height="26" as="geometry" />
        </mxCell>
        <mxCell id="9GOgxKpE9WdlAdHBGfbr-31" value="" style="edgeStyle=orthogonalEdgeStyle;rounded=0;orthogonalLoop=1;jettySize=auto;html=1;entryX=0.691;entryY=0.012;entryDx=0;entryDy=0;entryPerimeter=0;" edge="1" parent="1" source="9GOgxKpE9WdlAdHBGfbr-12" target="9GOgxKpE9WdlAdHBGfbr-2">
          <mxGeometry relative="1" as="geometry">
            <Array as="points">
              <mxPoint x="520" y="331" />
              <mxPoint x="520" y="331" />
            </Array>
          </mxGeometry>
        </mxCell>
        <mxCell id="9GOgxKpE9WdlAdHBGfbr-12" value="" style="strokeColor=#dddddd;shadow=1;strokeWidth=1;rounded=1;absoluteArcSize=1;arcSize=2;" vertex="1" parent="1">
          <mxGeometry x="450" y="192" width="150" height="60" as="geometry" />
        </mxCell>
        <mxCell id="9GOgxKpE9WdlAdHBGfbr-13" value="&lt;font color=&quot;#000000&quot;&gt;realtime Database&lt;/font&gt;&lt;br&gt;Firebase" style="sketch=0;dashed=0;connectable=0;html=1;fillColor=#5184F3;strokeColor=none;shape=mxgraph.gcp2.firebase;part=1;labelPosition=right;verticalLabelPosition=middle;align=left;verticalAlign=middle;spacingLeft=5;fontColor=#999999;fontSize=12;" vertex="1" parent="9GOgxKpE9WdlAdHBGfbr-12">
          <mxGeometry width="32.4" height="45" relative="1" as="geometry">
            <mxPoint x="5" y="7" as="offset" />
          </mxGeometry>
        </mxCell>
        <mxCell id="9GOgxKpE9WdlAdHBGfbr-17" value="Requirements" style="swimlane;fontStyle=0;childLayout=stackLayout;horizontal=1;startSize=30;horizontalStack=0;resizeParent=1;resizeParentMax=0;resizeLast=0;collapsible=1;marginBottom=0;whiteSpace=wrap;html=1;" vertex="1" parent="1">
          <mxGeometry x="710" y="100" width="223" height="210" as="geometry" />
        </mxCell>
        <mxCell id="9GOgxKpE9WdlAdHBGfbr-18" value="Display sensors&#39; data" style="text;strokeColor=none;fillColor=none;align=left;verticalAlign=middle;spacingLeft=4;spacingRight=4;overflow=hidden;points=[[0,0.5],[1,0.5]];portConstraint=eastwest;rotatable=0;whiteSpace=wrap;html=1;" vertex="1" parent="9GOgxKpE9WdlAdHBGfbr-17">
          <mxGeometry y="30" width="223" height="30" as="geometry" />
        </mxCell>
        <mxCell id="9GOgxKpE9WdlAdHBGfbr-19" value="Display device status" style="text;strokeColor=none;fillColor=none;align=left;verticalAlign=middle;spacingLeft=4;spacingRight=4;overflow=hidden;points=[[0,0.5],[1,0.5]];portConstraint=eastwest;rotatable=0;whiteSpace=wrap;html=1;" vertex="1" parent="9GOgxKpE9WdlAdHBGfbr-17">
          <mxGeometry y="60" width="223" height="30" as="geometry" />
        </mxCell>
        <mxCell id="9GOgxKpE9WdlAdHBGfbr-20" value="Control devices, sync app states with adafruit dashboard" style="text;strokeColor=none;fillColor=none;align=left;verticalAlign=middle;spacingLeft=4;spacingRight=4;overflow=hidden;points=[[0,0.5],[1,0.5]];portConstraint=eastwest;rotatable=0;whiteSpace=wrap;html=1;" vertex="1" parent="9GOgxKpE9WdlAdHBGfbr-17">
          <mxGeometry y="90" width="223" height="30" as="geometry" />
        </mxCell>
        <mxCell id="9GOgxKpE9WdlAdHBGfbr-27" value="Devices&#39; Automode " style="text;strokeColor=none;fillColor=none;align=left;verticalAlign=middle;spacingLeft=4;spacingRight=4;overflow=hidden;points=[[0,0.5],[1,0.5]];portConstraint=eastwest;rotatable=0;whiteSpace=wrap;html=1;" vertex="1" parent="9GOgxKpE9WdlAdHBGfbr-17">
          <mxGeometry y="120" width="223" height="30" as="geometry" />
        </mxCell>
        <mxCell id="9GOgxKpE9WdlAdHBGfbr-29" value="Display log [button switch, overbound]" style="text;strokeColor=none;fillColor=none;align=left;verticalAlign=middle;spacingLeft=4;spacingRight=4;overflow=hidden;points=[[0,0.5],[1,0.5]];portConstraint=eastwest;rotatable=0;whiteSpace=wrap;html=1;" vertex="1" parent="9GOgxKpE9WdlAdHBGfbr-17">
          <mxGeometry y="150" width="223" height="30" as="geometry" />
        </mxCell>
        <mxCell id="9GOgxKpE9WdlAdHBGfbr-30" value="Notify overbound." style="text;strokeColor=none;fillColor=none;align=left;verticalAlign=middle;spacingLeft=4;spacingRight=4;overflow=hidden;points=[[0,0.5],[1,0.5]];portConstraint=eastwest;rotatable=0;whiteSpace=wrap;html=1;" vertex="1" parent="9GOgxKpE9WdlAdHBGfbr-17">
          <mxGeometry y="180" width="223" height="30" as="geometry" />
        </mxCell>
        <mxCell id="9GOgxKpE9WdlAdHBGfbr-32" value="Sensor data" style="text;html=1;align=center;verticalAlign=middle;resizable=0;points=[];autosize=1;strokeColor=none;fillColor=none;" vertex="1" parent="1">
          <mxGeometry x="460" y="429" width="81" height="26" as="geometry" />
        </mxCell>
        <mxCell id="9GOgxKpE9WdlAdHBGfbr-33" value="Buttonstates" style="text;html=1;align=center;verticalAlign=middle;resizable=0;points=[];autosize=1;strokeColor=none;fillColor=none;" vertex="1" parent="1">
          <mxGeometry x="460.5" y="455" width="84" height="26" as="geometry" />
        </mxCell>
        <mxCell id="9GOgxKpE9WdlAdHBGfbr-34" value="Log data" style="text;html=1;align=center;verticalAlign=middle;resizable=0;points=[];autosize=1;strokeColor=none;fillColor=none;" vertex="1" parent="1">
          <mxGeometry x="471.5" y="481" width="63" height="26" as="geometry" />
        </mxCell>
        <mxCell id="9GOgxKpE9WdlAdHBGfbr-37" value="Controller " style="whiteSpace=wrap;html=1;" vertex="1" parent="1">
          <mxGeometry x="373" y="65" width="120" height="60" as="geometry" />
        </mxCell>
        <mxCell id="9GOgxKpE9WdlAdHBGfbr-38" value="" style="endArrow=classic;startArrow=classic;html=1;rounded=0;entryX=0.25;entryY=1;entryDx=0;entryDy=0;exitX=0.5;exitY=0;exitDx=0;exitDy=0;" edge="1" parent="1" source="9GOgxKpE9WdlAdHBGfbr-1" target="9GOgxKpE9WdlAdHBGfbr-37">
          <mxGeometry width="50" height="50" relative="1" as="geometry">
            <mxPoint x="588" y="344" as="sourcePoint" />
            <mxPoint x="638" y="294" as="targetPoint" />
          </mxGeometry>
        </mxCell>
        <mxCell id="9GOgxKpE9WdlAdHBGfbr-39" value="" style="endArrow=classic;startArrow=classic;html=1;rounded=0;entryX=0.75;entryY=1;entryDx=0;entryDy=0;exitX=0.5;exitY=0;exitDx=0;exitDy=0;" edge="1" parent="1" source="9GOgxKpE9WdlAdHBGfbr-12" target="9GOgxKpE9WdlAdHBGfbr-37">
          <mxGeometry width="50" height="50" relative="1" as="geometry">
            <mxPoint x="588" y="344" as="sourcePoint" />
            <mxPoint x="638" y="294" as="targetPoint" />
          </mxGeometry>
        </mxCell>
        <mxCell id="9GOgxKpE9WdlAdHBGfbr-43" value="Cloud Message" style="sketch=0;dashed=0;connectable=1;html=1;fillColor=#5184F3;strokeColor=none;shape=mxgraph.gcp2.firebase;part=1;labelPosition=right;verticalLabelPosition=middle;align=left;verticalAlign=middle;spacingLeft=5;fontColor=#999999;fontSize=12;movable=1;resizable=1;rotatable=1;deletable=1;editable=1;locked=0;" vertex="1" parent="1">
          <mxGeometry x="522" y="39" width="32.4" height="45" as="geometry" />
        </mxCell>
        <mxCell id="9GOgxKpE9WdlAdHBGfbr-45" value="" style="edgeStyle=orthogonalEdgeStyle;rounded=0;orthogonalLoop=1;jettySize=auto;html=1;entryX=1.027;entryY=0.46;entryDx=0;entryDy=0;entryPerimeter=0;" edge="1" parent="1" source="9GOgxKpE9WdlAdHBGfbr-37" target="9GOgxKpE9WdlAdHBGfbr-2">
          <mxGeometry relative="1" as="geometry">
            <mxPoint x="530" y="262" as="sourcePoint" />
            <mxPoint x="631" y="383" as="targetPoint" />
            <Array as="points">
              <mxPoint x="670" y="95" />
              <mxPoint x="670" y="484" />
            </Array>
          </mxGeometry>
        </mxCell>
        <mxCell id="9GOgxKpE9WdlAdHBGfbr-48" value="&lt;div align=&quot;center&quot;&gt;&lt;font color=&quot;#8f8f8f&quot;&gt;Sensors_data&amp;nbsp; feeds&lt;/font&gt;&lt;/div&gt;&lt;div align=&quot;center&quot;&gt;&lt;font color=&quot;#8f8f8f&quot;&gt;Devices buttons feed&lt;br&gt;&lt;/font&gt;&lt;/div&gt;" style="text;whiteSpace=wrap;html=1;align=center;" vertex="1" parent="1">
          <mxGeometry x="252" y="238" width="144" height="42" as="geometry" />
        </mxCell>
        <mxCell id="9GOgxKpE9WdlAdHBGfbr-49" value="" style="shape=image;verticalLabelPosition=bottom;labelBackgroundColor=default;verticalAlign=top;aspect=fixed;imageAspect=0;image=data:image/png,iVBORw0KGgoAAAANSUhEUgAAAQEAAADGCAYAAADSdjVFAAAgAElEQVR4Xu2dB5idRfXGB0HBQhEVQYqClY6iNBvYC9IhjZBCSK+bQhIIEEJI7z0hJBBqCL2KFbuICCio8BcRFRRQigqilP/8Jjnr7Oyc+eaWzbdL7uXhSTZ773e/b8o77znnPedstt+BB71qGq/GCDRGYJMdgc0aILDJzn3jwRsj4EagAQKNhdAYgU18BBogsIkvgMbjN0agAQKNNdAYgU18BBogsIkvgMbjN0agAQKNNdAYgU18BBogsIkvgMbjN0agAQKNNdAYgU18BBogsIkvgMbjN0agAQKNNdAYgU18BBogsIkvgMbjN0agAQKNNdAYgU18BBogsIkvgMbjN0agAQKNNdAYgU18BBogsIkvgLIef7PNNmv+6ldfTWezV/Lesp6nI39vAwQ68ux1gHt/3ete1+Iu2fDhpmeTFwFB+Kjhdfn9K6+80gFGpP3dYrsEAUH+ShdGbKHUY2Gw4OpxnfY3/eXc0eabb27e+MY3mq23fov517/+ZZ577h9GG2P+/X3v3cO95/kXnjf//veL5j//+U85N/4a/dZ2CQIy1qkTYosttjAvvfRSTdMip0nOBk/dC4v65ZdfruleOuKH/dNYG8OPfuQjZrfddjXvetdO5t277WZ2eMfbzVve8hbz5je92Wy33bbmqb/9zQxrGm1+9/DDrYCAMef/vn16m76n9jZPPPmkeeH5F8y/nn/ePP300+bRP/7J/OHRR81jjz1u/vLXv7prcHBUwyw64vjX655LAQGZpPe/773mjLGnN1NBJnDzLTY3Tz75lDlvyjTzzDPPRBcG7zvx+OPMCccdY/7xj38aNqFvN778ysvm9Vu83vzinnvNnPkL1LHa8g1vMCNHDDP77L2XeeGFf7vv8lnIK6++Yraw177muhvM9TfepN7LTjvuaM4+c7w93bZy3/XIHx4150yaXDHFrdekttV1ZFPGqHd4ksscf/6znzEzp01J3tJfn3jC9B881Dz88O9VRtC/bx8zoO9p6nX++9//mp/c+TMzZtx487wFigYQ5K+CUkBAFsyBH/mwuXD50ujd/vJX95vBw0aYZ559Nrr53mTp5HkTzzafOeLw5NNedfU1DlC0RcEptWjeXLPbrrskr8Omvvb6G1Qg+PSnPmnmzpzufs+JdELnbq9pE+LNb3qT2XeffcxnP3O4A9tbbvu6OjaHHHSQmWPHZsst3+DGBNDmxZzIz0888aQZMGSY+b/f/a7VdWS9nNa7lxk8sL8zB3zAFuDm335qgWBo0yhrNvw7Cwj4TMxPkb+FOv47SwWBj3z4AHPB0sXNFE4mE2r9+te/3tz/wANm4FALBBFGIEN/7tkTzNFfO9K8aBcGp3aLk9wuOK6jAYEAw9u2394sXjDXfOiDH3QLDFNDXkIvWSxFQPDhA/Y3i+fPM489/pg5vlPXjr86gifYfvu3moM/9jHz8cMONQd97KPmnTvs4N7BGJ1x9kRz8y23ug3um0aygfnM7OlTLRBs6d4vm4854P18DkYwcMjwLCDgM3zW38QACnMHEAwfNTrJCGCB9gLmxRdfdM9QiWn4WpvYUkBANt8HP/ABs/ayNc0npkwog8wkM6G/uv9+M2hYUysg8On/pHPOMl/76lecj8A3DVhscp1111xrJp0/tdXpIIsUIFiycJ7hnsLriL3Leyeed741D65XT6tPHHaYOa1PL9On30ADRe3oL5mrEUOHmM4nnWC22mq9ycOLceF/2UATzjnX3GSBIDQNBBgAAscI7AaUzwnIChBgCg4YMtQ89H/FjIB54rvk+/35vvNndzlG8MILrU0Dngkm2a1rF2s2bm6uu+Em8+fHHmt+rk2NHZQCAkIFmbQuJ51oxo4Z1QII5HSRDfzAr3/jqGLICHyKj2lQDATXWSCYogLB29/2NscIfCDwaaucGEVAgBPsb0/9zbGTjvLSvPMCtu/dYw8ze8ZU59zjuV5vAVp8BD5InnHWOVEgkOsfdughjhEAJj4jEFABMDANBg4dlgSCPr17miEDBziQD305sm5+dtfPrdNxlHMkxszBrbfe2t3LRw/8iPnuHd8zN996m7nj+z9oBu9NBQxKAwEfCDhhxo0ZnWQEmAYwArzC/oL16b+YBilGcPW115lzJ68HAgEb2dwsZijv0oXzCxkB1+Ba4ebpaOFE/34xnVLsZYcd3mGWLVxg9thj92a2FIIkP581cZK58eZbVEYAEMyZMc0Bgc8khAECBE89BSMYZh586P/UMfaBwDcNfCYJIxg2clQr00BAgeeHnRxufTq88Odce/2N5hYLCH/7+9/dv73WwaBUEPA3XwwIKmEE8l5Mg6OO/GrSNCgCAhjBovlznI9AACXGCDQg6AieaX/zs+m+9MUvmNPs6frTO+8yU6bPUNnSju98p1myYF4SCHj+M62PIGYayPceevB6Z2HICHwfAabBoGHDzW8ffEgFglN79TBDBw10jECAIFw3d/38bjN0xEjHCMIDRNjI9CmTDZEMef3970+b226/3Vyxdp0LQ76WwaB0EPCBoNOJJ5jxp6cZAaYBC4NJ0hjBxLMmmGOOOjIJBHj6cfSFGzblI4gBAebFumtaM4KOYAbI5u9ubeM9P/TB5lu+fO1VZur0merGgxHAljARNJBkXGEEN9x0s3qdQw852EVUfEYQ+ghyGEEMCERoFjMNYkAAC5o2eZKNdhzhzB3nOLQvgONaGyK+5PLLzeOP/6UZDHK0JR1hDbg13V46EMnEnHTC8VY7MKYqH4FsUhZApUAgp4cPSpgGePvZIClnIQ5HHI8dxRTA4XrkV75sAN299vyQW6uyqJ1WwzIDHwj8EJo8I5EB/Cfve+971bHJAQLCh3NnTXcKQs1ZCBAMHJpmBL179jDDBhcwgrstIxi+nhH44C9/Z1ymn3+eAwLMIv5dIkXPPvecM/8uvfxKZ6r466SjbHbtPtsNCPiDihDozHGntwIC3sNmZGJ+/ZvfmkF2YWC36YzgTMsIvhZlBFwH9C9iBAAB9LfINBAgaO/qQRY29zjD0l80FqGTz/ewQ4VTpkEOI2BuYASIrbTwIabB7BnTzZveVCMQ9DjFDBsyKG0aAAQjrLPQypVjjIB7xDT4nAUCAX5f24DTctkFK12ESECro7OC0kFAc6zFgCCkeAABXuS0aaADgVDF62640Zx97nmqs/Ctb4URzHWnZkdiBOK918Qw5597jvmqZQQpR6oAgTZP77Ay4CUL5hvUnynTgPGNqS7lugcf9DEzb9aMNCOwEuNBVjfym9/+VjUxemcAwc/v/oUZMrwpixHIMzGGokPgMEIgNX/RYnP3L+7JEiW1Z7ZQOgjEaJWcGDmM4LcPPmgGDB7WihG0NA3WAwEUDxbhRwZiQOAnLskihRGgLPSBIOYjQJ2IOKls52C4aWP3w79NBgi+/KXk2Fx51Tpz/jTdWQgjgC35pkFsbM4+d5KLyWuMACDAWYgaUTUNLBAgKGLeNWDqdUp3M3zo4FaMwGeSAAE6gn/+858qI5hmTQOchT5Icl9iMvHnqosuNvMWLi59vmsBmVJAQBYkFHubbbY2hHG0CT3huGPNhPFjk+FDTgYWRso0OGfCGebYo49KnnosUBaqDyA+SG233XaOEey9155ZjKAsIJCx3GmnHU3XTieZCy9aEw2timccjQVAkGIEa9ddbSZPna5rLN4OI5hnPvD+9yV9BDhjYV7afKcYgQADzI/wYYoR9DzlZIPAKVQWMp8C/Jzig2EE1jSI+QgAqxgQyDUkGnHJZVeYGbPndBifUAgYpYCALICPffRAM2/2TEfNQOZKgEAceTKhhJEG2CSUEAj8DU2Sz3HHHJ0FBJqOANNg0bw5LYBAvkOEK79/5A9WNtxlo+cO+ON3xKc/ZcbZSAsOvPt++Ss3xmEehr/wxTRIsaUiIMgxDbhHTIMUECBJnmtNgyJGQG4JJqG2bgQIfDFTuG6g9UNs+PAf/2iZzuzrCACCL3zus63YkigmYZc4DKfPmt0hGUEpICADvN+++5g1q1Y6SgY1SwHB8cceY846Y1ySEUARyTXAe6s5C7kG10qdeoS1kMBqQKAxAhYFn2FhduvRa6ODAAucBYmSjg3Ai1yIN9hwl5aQJc/Ie2EERA1SY+PnYciG8tkSGoslNnyYYgTMjZaHIfMGEMybNTPpLEQ4BiNIAUGP7t1M07ChhYwAIEiZBlPPO9d84fOfi7Ic8RUIEHSUKJEwglJAQAaJhJtVK5a5jQMlAwgQdmjIHgOCXEbgb+h6AcGiebNtGvLerbzILMqup/TcaCDgm1enj2oyJGb5p59EVFxCljWbNEbAdXKAwM/DiAKBNQ0wmz74gfcnxVZFQICcd/6cWUlGAPODEaAf0daNAEGKEdxz773WNChgBFZH4AOBzzKFkV52xZVm2szZHco0KBUEDth/f3PRyuXNWWQOCGz45i4bxtEmFDoPrfcnNIwaYBoQVw4ZgT9pE8aPc/UIYqeehA+RvqJ8S/sIMA32ctfhnvkfW7VL940HAjJW4j+RTEj+PRybooQs3l+/PAwSstJAUJSHISYjpoEkGYWCInwERIlSjOCUk7uZkcOHJtdNDhDACL74hc8nGcHlV641U2fM6jBA0C5AQMIvOGIoCDG0aaQh+aMSIIgxgoGWKlK5RvOUp4BAkB0gwDSQl2wqueZ2225rFlofwb777O2oN9qD3/z2wY3KBHyQEtVlSkabYgTynHmZmesTsgRswrGJJWQJI/NBvCgPg+pE8+euZwQaEGAaDLKM4P4Hfq2um+7duppRtohMamzuue8+F4bENIg5C3lWDQh8jYUPBO29XkGpIIA5sPqC5Q6dfUcMjGDYyNFRIJDwEp5+PP4hxWMRC/0lHZW0VDToOhCMtYzg2CQjQANPdlz4agYCGzUQ04D7efChh9qUCfh2fCycqeVh+GPDZmHTpBKyUnkYwpb8PIzYvawHgmJGIECghQ8BgnmzZ7jSZClGgKQ8ZRogkR7VNLwQCHCkhrUP/TV6/qSJ5ss23yLlPxHVZVlRolYLVvmHUkBABgVzYNWKpS0AQMJAMAKyv1LhQ2L/E886M0nxyEKDKoZA4PsIUCeiSUhNKEAgpoFvB8uzbLvNNmbB3Nlm//32dTUQuvfq0yY+gXBBaWwpLzPz185siqVoy3phfCnaUktmJrUaFlkfQZH8uhJGEOoI5GeeBecwbEcbm1wgGGyzVlNRg0qAoD07C0sBARkQ0H3l8iXNTEBorUwoGu8Ro8a4SjHhIMqJEQMCWcDCCChZRQ27FCOoBAjEJg3pL0BwwbIl5s1vfpP5ylHH5gJx9vsEAKDF51mRD5QzBpIyNrGErHBstIQs38SQFO1U+BAZLfa9BlK5mZlaQpbMPyXp5tuwMoxAExStNw2akkBwctfOZnTTiCSTvPe+X7rQKnkDYbRJ1gBA8JUvfTEpttLk19kT38ZvLAUEZKFQfOOS1RcaTgqJsYdAkMcIjnQJQylnIaYBjADtdzih3A+fJXGJBKaUs5DCE5gGGhC83XrG+592qpk5Z56rc1evlw8AaCtwmHFKEdoi1q2derGErNBZCBDACFKmQaUJWTHTAI0FgqIiRqAlZPlAsICowZvf3Mo0aGYEtjYltj2sTBsbAYKUoAggGDx8RNI0QHUJEKTYkqa6rNf6qOU6pYCAf8pQxYdsNE6K0NbzTQMYwU/uvFOdUFKHQyAInYUUjOg3aEiSEaSAQJyFAgShs9A/BduC/rHoWfychhL/z9FY5GRmEtEg5h7mYfhzVQ8giJkGPvDzd8auCAgIg8IIqA6kMQJMAxhBCgi6delkxoxsSmatorEgWU1jBNwzjKBa+XUtG7geny0NBGSymUAHBLaIB6doihFQPDJmGsiGo5gI1NWn6eGpBxCQa0BRS81ZSJUjbOoUslNdd/yEs1sxgrZwAnFNGnXMsZl2xM7FzBHQBAhgBMhgtVMvNyGrlszMeidkSR6G9kwAAaCYMg3QRBQxAgGCFCNAdYkeIQYEAmLn2YI2sYQsX1moqS7rsZmrvUapINASCN7vlGZiGmDXCuUWpKdoJIzgxz+9U01CyQUCfAShaeCfehQ3waYuAgJMAz+6Ue1EaJ8TUEFGixRYGIC8v9l/kqGx0BKy/NAWjKC/Bcm0aVB7ZiYJWQvntpRfx8KHAgTh+Agw4FxeaMOHMAItagAQsIE50TVA6dq5k0FolRIUwSgQW6V8BJKQVU0eRr3XTu71SgeBEAjI1EODnjINmkavBwJtQgECwluhj4BFJqfow7bRBfSXzjXVMAIJkd369dvN2DMmuPFuKxbAJsWJOn3q5KT/BEZAN5+U2AqBFPqIlP8EIOD0TGksKknI0pyFsRTtmGmAAu8KW+0ojLfLvBFqnj97lktGqwUIuthkq7GjRyYlxk5+TR5GUAa/Fvm17z/J3bj1fF+7AIEQCIgrp3wE1IpHR/Djn/xUZQRUHsY0kFdMPZcyDWSBUQmZisgpZL/t9m+YcWeuB522BAKUifhPEChpIElEhXp6Kfl1DAhC/0mOjyAnIYsaAhQVSedh/E916ZeMl2cEqI87sbPL/08xArQaKR0BJzjefpx92gEi1a9TgqIcRpAjv5Y8jFBsVc8NnnOtdgMCPhBQoIJCFSlGgGnQNGas+dGPf6KGDwECJiPJCH7/iMs+TDECTgdOiVTUoJ5AwIaRiIUPYjwHaczQaOi0BgSOEViQjAGBhA+1PAy+T9iSS8iy9DdkBLl5GMKWfCDQogZhZqac+i/ZAqJ9+w8yKPk0gPVNA3wERYwAIMDGLwKClBBNa4zj32NKfi1jo/XDyNm89XpP6SCgUUWy0KjvlwICQnAjRp8eBQKZYLLiMA1SjCBlGjQzggQQiEPs65YRjN3ACOoxQdrYAARsGuh0ymwqkl9nZ2bWAAQyNmRmwgjkJWAgzwi7ocKzJGTx7wDWzNlzzZrLLi/U4TcDwX77WRn37GjUQPwnKAEJ+1XKCKJ5GHTIClrl+aZBnvz6f41xhJHVY/3kXqNUEJDOwtpip1INVW01IOBzmAYwgh/+6McqI8BjO9kygjBq4PsIfv/II6b/oDQjwHGEAyllGgAEtOTiPZXaejIOPDc6AMRA2mlFhSP8JylGgPx6uHWkpgRFsYQsWTzCCFBd4j/JSchKCYpyUrRFfs09fP8HP3T2d264Vd6HahP1JuItzUeAaUDRURiGJkSrRX7tb0CRX6fGhorVscY4uRu5lveVAgKy2FnoOLyWLF+hLnZMAxgBJaxi4cMiIJAJJoYLPUsxAoCAxU5paU1QREyZkFLKNPBrFlYCBHwnL6TUeL0RHK259LJsIJDPiynBzzkJWbE8jPDU0zIzfdOlHglZbNwVtj/lu2xVpGNO6ORMkUr8LD4QYDbFTANhBIitkAbHgECuk1MGP2UayHrDP1VJP4xK1k0tAMBnSwEB36tLAtGiJcvM8pUXqou9iBFwPRjBSMsIvv/DH6nX0YDAZwSP/OEPpt/AIVEfgdy3BgTiTHqEykKdu1aUOyDXpmw25bOl9v3sefPNRWsuVZ+JEm2o8GKMQE5BgKBIY5EDBKguCa3mMIKiPAxCq5qzkGpIO+20kyG1txIACP0nFK0hwzPFCDAN0FjwXRrryhFbkcbMARILrcqGrrRD1sYCglJAQCb2AGu/rbpgmRv8RUuXm+W2lLM2ETS6oGEoCyTFCEaOGWd+8CMdCJB3EsuNMQJOCOxQgIAJfeyxx9X7QXeO7DQsQsmzVVpZSJ6Zhp3Y+n6UgfuZM3+BWX3xJeq9IMMlQSclv8azPtw6C1OmwcZMyKKD8fgNmZn+Rtf+XulpJ2OaAwQ5jCBHfk1mJr6GWhvj+HkYG8NHUAoI+EyAykLiPMIsWLr8giQQ4CMQ0yAmKOIEHWmdhTACLS1VAwIWoJyeAAGnXmgaMCly/6SkkpEmQABy87tqKguRR8FYAHJyHcCAv/Mcc+cvNKsuXlMVI/DFVsNHrpdfa2OjJWT5giKNEfgne05CFkBwpq3VICee7ywMoyM5IKD5lnA2ElqNMQLfNCjKw8gRW6UYgWzoHPm1lpCVMw6VvqdUEJDKQv5iLwICmmFCf+mJF/OMsxBQ1Y08fZxzLGlOH3LBp9gqMSlnIT3oAIIUI/CBQDzalYCA3B918CiDJYVJZEP5YaocIMDDXpSHUWQakDoMdU2FVsnMJHyYkl/nJmQhv26rl4wvRV8wDWIaC1lHOQlZOdWvSchCoVhtYxw5FLXGOPUeq1JBQIqKSEyYRUfEADaQchYCBDACMQ1CRsAGwhNL1AAg0E49gADTQDaciDYY5EpMA6rVULVGvL/E1yspL8b3U7yUFlgU2AztaR8k5y1YZEuIX5xkBJx6Kfk1oVVMg5T8GiCglkAqDyMnRTtHfg0jmGT7NXBftdjBlFiHuWmMACDAbEoxgpyErBgQyCkvG7hejXGkaEtuhKQagCgVBGACq61PQHIEBAzYtEVAsPt73uN8BDvtuKPOCCwQjLKM4Hu257zGCL5k68XBCEIfgW8aPPrHP9nw4RDz58ceUzefAAEbFk96NYVGyRKkCw9Rk1qAgLp+FPqUhKyY2YSzUJNfC2jGGIGMk4QPcxKyUkAAcFINWXOA5ixqPwK087velXQyYxoQhgR0NY0FjICit6mELA0IuF8Zm1r6YfhJRxxm3/r2d7JDpTlj5r+nFBBodgxuqCwU3jSTQ60+MQ3C38uk77H7e1zpKoBACn3Ke8XWY5EVRQ0oHDnFpoLKffliD7kX30egnTQ0u6DUNw6ik3v2rig6INekMSeqN4AgjCu3YAS2682Fqy9SQSknRdtnBJpDNichK8c0CDMz5eTkuR97/HHT+7T+LiJTTTRAPkM48Ju33myWLFuR9J84ILBmU1J+bTUW+AjS/TDy8jCKGuNo8msxxxifE7t0My+8UBtT0sChFBAIQ4Qp5MIZBgUOvaRyDZ8RpK4zeux4c/s3v6VSRQECTkHthf0LI3jYSo01IODU+8THDzNfPfq4iqmtPBOVg8gaLDIN6IW3cpUOBLnya1SX5GFobCmWkBUyAsaEsclN0RbTi3HE70KKeDUAIPchn6VRCOyOpCPKf2vgllJd+inaWkKWsCUtD8NnBE5jUVD0VoDAB36YsZilhNAJpbeFWVAKCMjEsdgnWgcUp9bLL7/kFoHvYX7llVdd8wkeHrWZtvEAAlRZnATCAEJGAFMgNo2tFl5HJpSa8gP7ndZ8Dy0YwUsvm6222so8/Mjv7XUmuiyy8CXXJWfhm5a+kd+gvfhOOdljYTGem8y4mGngL44iIAjl1zFBkWMEpGhHgEAWXS3ya5lXnlcSskQHseLCVWbh4qU1L265TwcAFgh4FYmtXEIWjGCDaRAbG1SXRYygVvm1REJi/TCEDQAOnbqdYhC01QKWsfVYKgjIDbG5XrULxD5dy3u0SMhry622dOWdog9gPyM+hS233FK9zuZbbG4sxEQz0biuLCLsU3/z+9/J9/B7PPj8X83Lt19xTJLoIyIj3wnH5AMEc2fOMPTni/kIxJG6YPESc8GFq5OqSxypKR8BQKDJr30gQHWZchbmMAKRX1MWrXff/m4YZbFXM6b+Z3CIXrdurSvCwjzOmjvfXHyJLrZCfo3/JJaHIYwgpzFOTj8MJ79GbJUogx8CgYwNhwZMFkb7mgSBWie+XoNSL6qVuo6citRWhJLCGMaMOyMJBLTjipkGPiPgNOVU1ehvkfyaz+UkZGl5GMyheMYBAujv439pKb/mPTJXtEr7+je+Ycuz/1/dFrVcmxqMn/7kJxxw4lsqAoIwM1NjBEUdsnJUlyn5NePDnIbyawFdgPKU3n2ivRVq2UPtggnU8gAd6bOyQWl3PXPalGZp8Le/e4cDAihfzDTAWTh31nRzyEEHJaMGOUBQlKLtErJGj3WqSy20ChBQSktefmjVBwItRbut5kzGVwRPgADjyXMUya9RXaI/SWVmorocZqMGqcY4Wj8MX2ylMQLfFPaBQMaX57jje993kYt6HVgOmPc78KD1nLvxavMREBZw+ZrVzg8iYSBOq+/c8T0XzpSFG6baYhrMmRkHAp8R5ORhoCNIaSzW52HE5dcCDORhoLHwTQMZQAmRaQlZvE8Wdi26gHDCBEARkl171ZXNzUzl+yqVX8dCqzlAoMmvuT8Zm5zGOL7qUtgJz3JqvwHR8GW1C7gBAtWOXIWfE+SmxfWMqee36LUgp+d3Lcpj8+FviDECfCd04YERxMKH4iPIAQJOvZT8mnsYMer0NCNIZGaKV9sBga1ZGDMNKhzCit6OD+SQgw+qKg+jiBHklcHPa4yjpWjLepkw/n8dshgAxHSwNMq/1csMboBARUur+jczYZz4ay9bY969227NOQFc0aeKAAGMIGUawAgOtQs8JSgqSsiql/w6Jw/Dl1/Xa+FqMyGbx+/J6LOOnIQsMjOL5Nd5jXHiZfC5d2EEaCwAglTRW5FfsyYkqtT1lF5WlPZgXcyCBghUv68r+iSLn8U4eGB/07vHKc2ZkL4dKIwAhSO5DxojIAqCsvDQQw5OCooWL1tulq2oLTPzP4itNiRkaU5HohzU3ZeX7yPwGQEx90f/+Ef3tnqaAf5ECMjstusu5pq1V7iTs9qErCL5NSFgojtoHDT/SY78Osc0ECCQ0KokGNXDN9AAgYq2cn3ejGe8T++eyQpFOIBGFZgGc2ZMM4cdekgyfFgEBKguKfWeTMhKyK9lEWpAwKbkBIMFfeNb33Yspx4Lt2gm2JRXXX6JQUMiPgH+rCQPI0d1iWmgNcapVH5dVAZfgIDDgkjOsbb4KuKsWtlVAwSKVlOdfy8bQIBAaiP4jEBCWzACYveaaYCPYC6mgWUEsSIecgpXmpkZhsi4N8cINiRkaYxAy8OQZ5xj06FjMfs6D3EzyMimCTMzfUfqvArl17Hwoc8ItLGpRX7ti61Efs2YaeDSjHMAACAASURBVCZfpeNZOgiEwpwcmqiJefyHb0/XCe9FFgqmwWm9eyVNA7Ig2XzQwJizENMARkBBEh8IwszMQiAIGIHvjRYxFkCA4xKWkgsEPrid0LmbIeGo1pMrZ5HzHdvYhiSz7dhI1ya/nLnPCHJUl7ClWIq2CIr8xji1AMHDth9Gv8FDoj4Cua5Uv+a9J3Y92c17La/SQaCWm099tl4Lra2uIxM6aEA/0/fU3s0JULL52HjCCAAC9P0pRuCbBrLx/A3oZ2aGzyT34hKybD1HUnL96k1Co/kc4cNRp493HmrtOsivp01eX1lYIhZk1FWSXl3rupB7Q5o+3yZk1QoEYWamxgikQ1YIBGIaIL8uUl0ClCQdhWXwfUYgqss+/QdGdQuVjF+pIIDThtxuXq/a/1632etcIQY/tTh8GGxLqg9ji22+oTBn+B6uRYmn1Iu03a1te2tO2NcFcmW5FzZd2HIqvCYy1c3sfbhNo1znH7YPAJtH2zQCBDHTQJyFVEpyjCC4jlxzS9JxZ04znzjssFaPLayAhUkJtyW2XoP8m7zZBwKKb5CSm3qRh3GTrQOQAoKpG1K0ufb1N95szj530kbxB8h9y72hsdBUlz4jKJJfk4ehMQLJWfFVl5qzMNYYx+0BC/zNYit7yuMjiCVkyVyRL0P7NWpD1OJnKQUEZHKo/7Z00QKevjnxh1rwI08f6zZ5uMD4Gfp7lo2dftnWCmRzbUHWn2w+uY79Nxo/UoknHBy5JunHqPB233138+K/XzTkFjS/7HWYEEDg/Okzze3f+KZ6HUJ1U23CCuBE/gOAIC/3s723J5580sXciZlrVHFQ/76mb59To4ygBRBYRqCZBvgIZk2fYsFxc0PDVOrhP/+v5+371wMQL3IfGGOeLXzJvQGy7919D/PyKxbYNjwPALf55ha0t93GMQUciWQwEv8P58lPyAIIuMZiakhGislWcmJV816fEUhL91RoNQcIUv0w+D4BgqKErJARyPNJ+DBHfj2g72nm+ptuctWvqn2VAgKy2KSyUHjzyDJpnAEQxBCOUw/Bzac/9clWWYP+tSjOiUpMAwLi9RQm4dQT9hHeCwh/+vgzXfKGdp3PHHG4mWnvJ5WGTMWbgUOHuTRkDQgG9utr+p12atJHQH8FTAONEdRyIvDslZg/qffKfXz2M0eY2dOnmumzZptLL2+d2lvtwq3kc3KfyK9pZ04eRkpsVSS/doyAVnkbumhHa11axkZmJh2yqpFfi1MXu1/rmSnz9SZr8pDkVO2rFBCQSaGyEDX2/ZfYkFTFheYgyvAXtnyWgZ0xZbJhkYmIwreB5TqU60Y3rm08TrVllo0ACLIwmk/yDVmM/ExnIRqLaNf5lE1YIR/g9V5cWq4jJzk2Hg1OUozABwKex/cRyHWwx9H3x0wM+U7fsRcDttSCEdsz9Z7QnIi9VxY/enruh1JZtYJU1Qt9Q7YpPgLEVmFmpjwPf3LfRUAQJmTFgCCnVV5Kfi1Ox7ZWXZYCArIQDvzIh80FttGEIJpscFnsPiPwTx35Oz4FgICTOBUiKwICmACMACCIlTPn/lgc42xBzBwgeAOmwYbKw34GGAsFIADZQXgNUKB4/fv2STICThhOmhQQVLth6vk5eUbMpZgJUs/vCq+lMTfMJhgBQJCq3lQkvw6LtsSchcyPMAJtvlONcZoZQSIzs9YxLAUEZBOTuXXFJRcne8LTVJOsKeiOxgimWyD4nGUEqYYXdPKhyIQ2EZT8XrZwgdltt12ba8/J4Pq57nQfpvmoRvGEEYRAwDMLsucwAh8INEYAEGAaYINWQuNrXTSVfr493ZtvGuRkZhYBAf0wUmXw+b5UQpasx9zGODDJeudhlAICvu1Jtx267khhjRj9BQiGjGhq5Sz0GQHVZDQgEDQtAgJMAyb0Pe9+d5IRUCIbINAA5ZOf+Lizg52z0GMEPhDg9SWxhnCQdh3YAGAQGxsJHzpGYM2m0FlY6UZtj++XtVBtwREku9/6zncNFYRjTNJPyKolD4MOWX5mZsgI+G4ES5Kirc13Sn4t7DiVmVntHJYGAi2AwGrphw0ZlAaCu++2udyj1QllYGEE5OqnnD50uKXTbYoRAARiGoS2ngw0ITI88BojAAhmWR8B3ngNCHJMAxyF+AlS4UO80DACbND2dOpWuyj9tRH+Pfea2P7f+cZtLuUWJhnmYcj8h6pL/l18In74sEh+XcQIuG5Oq7yU/FqiBq7obR0ZQakgwITKZJBUkwMEdJLFWaj5CKZakQpAkDQNCoAARoD3F9255iPg3gUIQkARYPikLTiKYg0gkDiyRCHENCB7DB8B2WQaMAkQSEVlny0JIwAISGZp7z6C3E3M+2hWS5iSMmS5LxlDaenGOvm2ZQOnnzGhVUk4WUMOCEjI2pB6LH4c39HMnBYBQZiZqTGCourXOWXwycyEScbK4OeOlbyvdBDwgYBy3ZTtFvoXMw1Adgo/QvFiPoIUI/DFGEWMIDQNYoyARYJpACPQNjDiHWL3rv6h4izENEAhlgICNARoCZKM4Kd3umSWjswIZBylLTjro+/AwS5TLyeyIO+hbDtVn2UNUb1prA31In32Zdw+EGBSHmbzMABt3x/EmPMZ/r1Qfm0b4+BbKqrVUNQYJwUEwggAgn62wnOsVV4lQNAuQCAGBCkfAbXgoXgaELBhYQQU8Egxgksuu8LMmD1H3cAIYpYumu8YQcxmlIE+8+yJ5uZbb2t1HWEEAMHsGVMdEGiM4Mknn3IKsVwg0JyFdBXqqEAgG3j//fa1TWmWN5fb/oHVRgwZ3uTYX8o/IJ8nsxImx4tuw9/89nedWfDr3/wm+nmfVWIG7rP3XlZL8DEbPfio62khL9l8hbUadv9fPwxhfMIAuX/xERS1yqMMPmIruT+eL2SSjz76R7duamEE7QYEKgUCKOJguzA0pw8DBrIXAQECFoQsMsBySsiCYhHQ4ARdvQCB2Kn+ghQg0HwE0FOchVBPHwi4ljguc0wD8gyQGacYAacmpkFHYwQy5lDzIz79qWbfztNPP2PTZjs5BWTRi7Lzay+7xPzjH/80S1dc4Dr3VPtCWo6qFVEapgIOY3lJh6zw2vIMRUVbeJ+0yiNbVFs3fmMc2SNh2LlW06B0EAgdWTKIp5zczYwcPrSFs1AeXjylAAGmAW2jNNMAJGUgU4yAJhU0q9DuBUaAZlyAQApVhCcTHXbpq6eZBhoQ+FEDGAEULxU1IPOQDMSYj0DGBiCg8aimuqx2Y7TV52TsGeMrL13jioEI2PKcx3fqaljsmuNTxpwI0X777mvmLVzk1o5sHAHbovsXp2D4flSq+9hehpgYmAxUH2LdUMlYzAW5ttxLbqs8LTPTl1+TkJVkBLZVHoVd//TnP1fsHC4dBGSifTstBQS837ftcxiBAEEYNfCvI0CgbWAHBDACa/MlGUEBEJD7Tw2AFCMACJAYU5VWux8BghQjQHWJ2dQRGIE8Z5dOJxlSZWWMxY9Cb0fau+X4BcLNWLTxtd9rgMD70bgQ27/TStzJ8pR1GX633yov5mTmO1yrPKVnpjwvjBYTV5yVwlx9JolpcGr/AYb14++noucvFQRQXKHnvu+Xv1IXO91+afaZ8hFg98EIaFCiMQKajuJsSTGCy69ca6bOmFUTI2CSMA3IsNMoHjarmAZa+JCJHDBkqKH0lAYEVCeiOElqbHz5dXsOH8ozstCZJ7GlZXMd37mrU1nmPEMlQFG0Qfzfi5PRNwNhLCETCIEAPwPSdJzN4lcIfQQAAYyAGpPafAsQCAD4QCBRIsRsMUd16jlLAQF5SGSbM6dOsY6NIVGUl/flAsFgGz7ENIiFD7lWFhCsvcpMtZmD2kRQqhuJMXHhFCOYYBkBQBBeR4ABRkCdwJSz8KmnYATDXZfjaoBAFkZHYQQ849VXXu7MLj9CBJM5rlMXlymXAwKVbOxq3xsDhNi1WpgGNM8NajWISSmMQAMCWTeEvwFK+X4BAmEZC2wTmlij2nYHAjKROF3WrFrpcv8HDx+RBoKuXcyopuHJ8OE9993nvMgaI+B7AQIEGSnT4PINQKD5CEIgiPkImBwYwY0336IyAoBg9vRpzfXxZUJDH0GRaZCjuiQPA2fh81ZjUQlVrGST+PTZ/1yu4g8T6dYbrjPbb//W5nnmmoRQ8QngBO6ILwECHItEm3A2a1EDgBsgoA+FxiRjQCDXu/b6G8w5kyZXZDaVygRIJb5w+fpmlHh+iZXf/8ADummwAQiSpoEHBBojoDIuQJAyDa5Yu85MmT5DNQ3IuUdZiGRUYwR8/1kTJ7lmqiojsF5nvOGhj8AHAnrX0dYrxQhSQCCMANEMysK2osupDSoAlwIgUnNvuHqtwSsvaj0+98Mf/7iudfbLABIfCPAtkauS8hGQvo62QWOAOEBRyPomAWuGUKj0d8x9zlJBgFTii1Yub0ZFOv0OGtZkfnX//erDn9y1sxndNCLJCPAxDB42olVVIAEF/gQIqJmfYgRFQAAjQDOeAgImCdMgBgQywTQTIb2VCjha+HC9aTAiWmteruOrLvk3cSJJpyMYi9apN3fBpN5HDT4ac+644zvtuL7k7pXYPJ2gU846mRdOyGuvusL5ifx71tJ663HPG/MaMk++j0BjBPw7jAAg0BgBQIBpwO8ldZ7oAFWIK2mYWyoISFERTgeJlecwAgGCFCOgeg6mQVgeTDYGf1LZBQ9vihFQoWjy1OkqI+D0WmYpng8E/uZjkTH5MILrb7xJBTfi0ACBbICYaUDpNcJASUYQkV/7ufKMGSfFL3/VGmir3RCyuCn0gvMqNAWYC0Dw67ZCE9mgMj4hK4AN3XLDtYaSbWJCcL/devSuW6ONap+xXp+TsSJbFSZJGrsGBBxQyJ1hcBqTpJ4G6fRiij1rGfXxtqArh0au/6RUEBAmICoqHwg4yWMLVQajW5dOZszIpqRnHEYwaNjwpI+AfnpFQHDlVevM+dNmqIIiJKKUnCLakTINzj73vCQQ4CilFXmSEVjTgBZUFO7UqGKvU7qb4UMHt9JYSCSCUFLn7j2cf0C877UscrmPiWdNMEcd+ZUWxVn8akt874IlS125Nl7hIuXnKy65yHzg/e83/7W2MbF5aiuyFnIXdC3PsbE+6zMCqWylmQaOEdhmtTEgkOtQT2P6hhJ3pJWf1LV7UlMRPmcpICATKpWF5GceSlARRlAEBBJT9hlBKCgCCGAEXM/fNL5pMBlGYKvA1sIIQh+B5iwECK674UZ1A2tA4PsI1jMCfASt21DJM0oeRsiWZHwJIxFOqod/QMYSLcXVV15m3mILuPqLWpiIAAIgMHHylBZqT7kPqazEZzgJe/bp5/xEMcDwGUWYDxCysY21wbUIAf/uO0jleXfdZRfnLNxl552j4UM+x1jCCFA/aoxAgIAxpqozh0QucJYCAvIgZImtXL6kRXNOf7FD5QGClI6ga+dOhvLLKdMARjHIhtq4nuYspNV2ERBcdfU15rwp01rRWXkegABGQA26FCPAe5sCAmrgUR03ZAT+2BBRIWqAva0xghgQ+AKpSedPMeuuqU/JLxlXIh6zrDyaVN5U1R7mlBwHnJ7+nDCGK5Yssgk4O5iJ553vKjn5v+dZww2V2uC5G6GtQCJ28IT+EVqmoUgFCGKMQJ53jHUWAgSajwB5M0I05PTUoswF+FJAQCaGh758zUUGvXdoF/mMgJM8BQTCCFLZhzgbcTrifNQGB9OAuvAxZ6F42H0giKkcQyDQGAFAQDhHm1CAgKgBm0lLOoIREFFJmQY9unczTcNayq9lnHAeUbe+Xv4BGVdCv5PPnWhY3OLvEZuVBS1jiSebNtvCFGRz8MxvtP+Hdq0/bzgh97aJPgfsv595jxXjbGOrIG+37bYulfoJK7T63e8eNrd+/XaXkFXGy79Xug/hA8DBGYJSjBGknIVEDb4ZYQRyHdbv81ZXETMftHEoBQR8exCTYOHcWa5+urbYifujI8DBpJ16XU460YwdMyoZNXBAYO3pmGkgA0Qtd+rCp0yDdddcayadP1V3FtoFStIRDSs0RsBzCBBoz5TDCJ5+GkYw3Dzw69+oY6MBAd9L0lKv0/o5zXnuyZHaVHINNuRpNtmp04nHuwpLQmtl7sXmP9eaBX4B0vDUDzUG+1r9Ph2HD7enHmsm9QLkps2c5djOxmQEMgY8N8le+Gh4XXjRxWbegkXqPGEa4CPgzxQjGGtNA/o6ausmPFiKQLA0EODG5CEO2G8/M98CAY1INCCAysMIKgWC0EeAfUmoLWQE/iIhagAQpMKHLCzotIbsRA0Wz5/bDARFjECb0I999ECnLJTYOe8L00kxDXCApoBAErJ8tiQnDslKgGO9atf5z7L3XnvasOExtvTb4Wa77bZrtR5j6dxh9EDGGIn0qb16tAp9+iyDL2B8AAAiLT+5807Tb+CQugBc0Wbyf4+idILtj0EEjDFnrAGFVRevifbD8BmBDwRhHQuelesBBJTBDzd8NWBXKgiEQLBg7mxnGtTCCKQYRcpHoJkG/uKDEUDj0ozgf0Agi89/JkJdTCjdbbV6BEw+ti+tppNAYKvjpkwDQA1GEEuykevG5NcCBBSmaBpzehRIKln88l7ZmAI60HecnnvvtZfzmfD6nc0FWGEbkuAX0F5y79KchfuVMQ4/I2YF383nYHzUXyTJrB4sp2gc+F425YnHHWsG2AIwHGp+IpTE8rV+GHKPmMn4CDCnUowAx26sH0bRfYa/Lx0E/E2DLUkLLAbPt4t4j4QPMQ1IFiJpSNs00MXxp49uYRq0ZgS/dpsmxQhygAAqC6UNTy+5NxY/giIfCHgeQXR5/iIgwIk6f44FAqum08YG02CQdaQmgSAiv5brkXcx3tZOJL/dn5dKF5X//kodea0W6IZ+AawLyrX55oEwohgoUG5t1tx5LgGrmtOxmmcWEJg3e4ZrB0fxV6pO+5GKaoEgxgh4fmmMU6kJ4D9fuwABf8FRVQZGEAKB7xl3QGBNA3IFNCA46YTjDa2pffobAwI2DZsn9OLKyX7u2RMMVWtTjIBTnE2sAQFaeIQhRYxA89bLvdFUk3r5KdMAUKNmYco06B6RXwv74s/Vay4xy1asdKXMBbBqzTcIKbsswtApqIEAMtsRQwabj1sggBGFL+6VApy/uPc+c9ttt7u1US8g0wAhnG95HxtSGuPEGKAAQVE/DL8Mfiz7UNYojXFirfJygazdgIDGCELTQH7m1IIRxKiebJoYEMjAcfphp7NZ2DQxRhACQcpHUAQEmAYwAopRpJyFRUBAwxbq5xUBAX6PnDwMHyT9v9MubbW1X0mAEjFXrUDQ4vSxJ7y/iXKvjcKOzYHEmJp/zBu0/wmbZPSoLawRfkfudXM3jLwvPDTC7wEIaE1H/D61bi6+5FJXmEQ7zHJMA+4JHUG1QFA6CGiONUwDGAFe5ljIhEGDEdCzMAUEJx5/nDlz3OlJRgAQ4FjDwaYxgolnnWmOOeprSUYgGVzaM4VAINVzmER/AxJ5IAKhLQxMAyiniHJ8qtgcWs3wEcTk176Em/siDXmULXhR1J05dxOFvoLU5/z35n6uVvOj6Dn8+yDs9+wzz6r6E+YXJR/S3hQjKAIC0o+XL1rowowpRqB1yCp8pv0OPOjVoje11e9lkWubhnDQIuthj0UNhBGgRUccQcxZ2zQCBClnIUCAjwDTwL8f/7SqFAiESfgsB9MAQRGVadKMIA0EWYzAnpB4/VMJWZr82vdoE5HBbIJ91fLy5wd14f42xv+Ot7/NObcIVYbjLqerPwfVmhW13Hfs9EdYNt6GpNEhoNXQyuCnTAMfcIsa4/it8lJ1LKRDViV+kFKYgNwgC5nKrthG2gbeZ28LBPMsI7DhJU1QxOKkjFYKCE6wHltCNikfAaIbJhQRTng/cs/nTDjD0GAzJShCDYg8OMUIADcBAo0RoE5EnKQJij7y4QOcj4B4uSq2ysjMFNVlSmyFI3bsGWe5XorVUGwZT6I/Pbt3NwAzf+el5QeQbUcrdIRivCpZ2PXY9LFrMNZNw4a4bElxTN7lNcaJmQnMH0VvY/0wGHPxEeSUwS9iBNxz9159osCvjUkpICADxSJetWKZ2rZa3ueAYP6cpGkAI8BHQDlyDVBiQCCntfgIkOEix02ZBgIEKWfhdTfcZIHgfzXhZOPIvb31rTCCuWavPT8UpYq8n8UjQKA9E2OIjwDTIKWxQDadSsjSgIBryr2suHCVU71VGm6T9+P0RZWJGIYXsXx+d4915qEc9Dc64bFLL1rtgAJhDBWhQ7bQVhs9dl3uk/s/a/w4V2dSWKVsYNYdzupqG+NI9CsHCGKNcbhnuUZ/W6iW0vO581QKCAiiIxJadcEyd7PU/0c4oi124sswAjaPdupReQZGkAaCYywjGJdkBCTmkKBTLSMQQCkCAkyDhXPn2Nj5nknTgFRmUpq1sUF1CRCkNBY40DCbKgECMWMAuwWLl9jqumsrylP3zaAvfP5z5lzrV0HAw/XkWWBByy9Yaajl79vzyF8BDBgXIhs8/6f2HdAq16CtgUDWKupPSpnz8lmgn4uR0xhHyuDntMrTmCQ+AmoW+q3yfOdt55N7uOSyXOZUCgjIAkBNBRMQBKNHIEiYMg2QGKeAIMdHcPyxx5izzmgJBCEjwDTAnkbIojkLuQbXSjEC8ugpKqKFD3F8IjH2gcCPK8tGIpWZlGZtbBhLgKBIfo0DNCcPQxxQgMfIMeMMlLfSl9wrHnIKq/qnlZge1A/s1O0U88c//ak5J57fYS6I1oONBhAAYDAGNpCvF6j0vlRavCFiEYYtxQ/Rw5bBD1O0w3XjGIFlpFI3wfdrCKOi+jWgmHIWFjXGITqCEE1a5XGPjDcl5k/s0q2i0uOlgoBfT0AGSKt8IwsK+gyNjgGB7yyEEdDNWNs0OUCgMQJ/Q5995nhnH8rpJqeZf0IUAQHPAsuB7aSchUVAALMS1aXGlnLk16K6JPbezza+jAmzijaenEKA24qli80bbcEQxkTGR5KIwv5+Ml+IbTAB5YST9y+3CkPahedS3dh9xpyLsY0f831IHkbKf5LTD4M+AgBBihFIY5wUIxDTQK4Dez3+pC5ZjVpkbEoFAb+ykG8zEzclbKKbBns6Gg2d1sKHIPHQERYI7AmmXYfNyyZOOQup4kPUgIw2zVmIeXHCcWlGQLydwqO+3evTZRyfgFsRI6DuIWXPckyDFBAUpWgTNfjrX59wGWvVqNFYuFRSvvLSi5tbvUs9AaH4FD/FV0EykcyBLHgKtdx03TWusIj8jjXyktV3nNyjV7QnQxEwFf2e7yT8SvvvVIp2LCErZAQ5poHWGMd3Fmb1w9jQGIfPPfKHR81xJ3WuyHlbCgg0+wSsLbva+gTEyypozGKZPW9+MmoAIwAFY1GDZkZgK+cMs4yAxaZtGjz9OPoKgcAKikLTwN/QPhDwXTFGABBgGsgrdBbyLDACHKEpRkBJdCoia8+EAwuQjPkIZGxSqkstVFe0ieT3cl8k+wwdNLDFs8iJTjehnn36OgdseNLJSb188UKDSlLuWcxGagyQW59r84b3jS1NrQY+T53IXXfd1XUVgokxZjnVr2MJWSEQwKBIX081zxVGkDIpi4AA02ChXTeUuLvD9i2ABVcyNqWDwKoVS5vnSBaPmAY5QICmHBFOLNGC68EIKLVdKxDQDYioAU1BdEYw1jKCY6M+Aln89CKgpXmaEeAsXG8aaOHDHCDQ5NeyqYpMA7Hhcze//z6kvTdcu85sb00deYknndg6BUVQ+MUWq4wvZd8oCCtzK6D573+/aPsQdHbdeCta7BvyEDjtqecoIUr/vmXMc1K0YwlZoTS9lsY4PiOQxjga8FPHYs2FK21HpLtcPctKzKVSQEBuUEKEMsm+Q0yAYM78BVa+eol66uX4CHA+4axJAQFqQBiBfzqHyJ5jGqBOxKmVQnaAAEYg39WKEVhnIeCGWCrJCGy3JBZHihEssteJOQsFCNBY0LSlGrs/Bg5yL6RAc5ILwxIw+8GPfmTGn3l2lgIRILnGVh/mtBa2KJEXohUXXLi6osXuA6/Lw7COVHwVPthy/y1Vl3ny65QQzWcEMZbFd0pjnGQ/jA0dsni/78OQMYcJ7LzzuxwbqAgcy1IMcpNbb/0WV0YLMEil2hYBAaIbxDfCCMKMK8cIrGlAWiky2HDTiM0LEKAKTJkGZKXRHizFCAQIUoKiHEaw0MqmBQhURpABBCz2mPxaFrufmVnJ4kmBAEU/5lkhk7zwqVBUgzCjOAhTHn6ZI5K3SOKS9SHgRZYgOR/V3K9cG7EaYquU/Hp9ZmZTMg8jpww+CU1DLdjGql/LeGj9MFowAqUxTjXjUKpjMKSN0FYmJAYEwgjmzl/oCjJop14OEBA+GTZyVBQI5LrHHHWkZQRnJhmBBgR+1IAMRhKYUozg5ltvc85CP8brn1bQ1UXz5rr22KmxoaMydqM2Nn6KtmwiOVnlZ+xWzCYiKrUsKJlbknv69OppdtllZ8fAUAUCBKEZlDI15HmoOUiVJYnAcH9/+ctfbVeiLg7cq3n5QFCYkJUhv84pgw8QDLaAkmqVV0tjnDAMnTsupZgDzQi0wUYjI45ceWy1GP0VIKA0E6eJtthJ1SV2mmIEAAH2KBVntOsABJTPDhkBgyzUEbu2v+0BkGIEuUAgPgIxP/hT7o0THJD0gUA2EvcnY1MEBDAKmEXoSOVa4q+AqqONqMSezF1o/jPlfkbACN386guW2+Kj73BiJVjRP//5L9tko1NN4iHfLBX5dQiSvmnQERrj5I6t/75SQcBfGAABiFzECIqAgFRd4ssU89DChwDB8FGjzU/v/JkKBNBQTAPfXg+dPgABlBQ5q79xxLvNgkLwQpGTFCOg/DdAEDICuWYRI5BxRFpLbFkDNwcE1kfgmwY+kGidkqpZWHJP8tkwDp97c9favwAAIABJREFUTQECmB7RIDQVvPDgH3nMcVUzAfl+HwjqIb/O6YfhN8bRfAQ5jXGkH0atzK10EGgBBNYRhP2K0ybJCBYujnZelQlF4okKLwUEOAthBDGNtVyH8mLYoylnYQ4j8IGAa/O/nPri6BIg0JyFAAFhP8J/KWdhkfw6zMMQwMJWPeaETi6Lsr29ZD7IJxhmC4scYsuUoZXAOVjrBvDXn6+6VBOyMvph5CRk+WXwwwNE1gCmARGSlLOwHkDQLkCgFRBYabBvGvi2jsSK5y9abFauuihpGiyGEdiCnylGUGQaUHCUMmMpRkChTnIN6J4bnsKySMeNGW1Q4qUYASWySQX1dRP+2MSAwI+oyHuLgMA3DaDXSHK/ZVtdjRwzti6bqi1AxB9XxgFnZj1fcv16AUGtjXHk2bTGOL6zUGuVlzs+7QYExM5lAyDkmD97liHMlGIEWpioEkaANHY4jMB6m7WUXYAARuBTyNA0AAjwEYSmgb+JKYlOafSUxPg2K4QBCDRnIeE+8ieQXKfGpigPAx0ClY6o1cCzYI7ARtrKH5C7IFPvq9bxlfvd8uzIrxHfxFK0czUWvC+3Hwbp61rUgGfO6ZAFM5o6Y300JiZ3To5rWSFC7abk5CRGTIjJB4KYjqAICKhsSxEPxBQaI3CmgW3ZDRBo9rRktaXChw/b6rn4CMi51xiBDwSAjr+wxUGnAYHvI8BZyGJNCYqK8jCQKC9duMBm9m1lPvflI12pro7wqocJIM8ZXqsZCLzMzFrk17F+GOEBUlT9mnvV+mGIPgE/AwrMasamVCaAp/oFG+KhKmvMQULaKV5bCQ/5m8Z3aGmtq1swAqsjSJkGdK4hRJZiBAABk+EzgtC2BwhgBDHTQO5n7OiR7pRImQZIYykgqTECYttIjH1GEAPJIiAAZOkkTLrypvYiysAcqEBgQRYnc6pWQ07RWwGClKAo1RhHzEOchaxBnwGKT0lLLsuZ01JAQAadvnUMUJO1RcPJ8BkB7bhqBQI6Bi9ZMF9lBHwfQAAj+NGPf6IKiigrBT1L+Qgo0kkL8SQjqAEIWjAC60gtAgItIauaUyNnUbX398hzw4T2txs9pbHwG+PUIzPTZ5LhAaI1xvHH0y+DzzqQsPXxnbpW1InYv2YpICCLmNj3mlUrzXfu+J4ZPXa884LWwghIMSXVVKP0RaYB342jDB9BDAjkunhsQeUiRkD2Yayrj1yHRqp4kn1GEFJFKshSSVZjBIRWkQbj0EoJitojELS1jV9kcmIifuOWm1xBm1Ro1U/R1sRWTn5thUCpMviSol0IBNZHkGqVh3+KyJX0NSDS0L3XqVVjbykgIBtdWpOzKQCCMbYPO5vQBwLZMDgLSfo45KCDkoudCjVUqtGAgPZQ9ABAeBLzEQgQNI0eaxDPaNeJAYHQNrHTSUntb/PxY4wgBgRa+BAgwDQQOhnmGuDAwmzS5NciKNISsqpePXX6YFmMhDTldVdc5qr4FqVop6pfx+TX2rrJbYwT64fhD7f0wwBQlq64wPWJqNapWwoI+OEYKguJQ+y7NvGBMJVmGuAjoC8f7axSp14REGAa4CxMAQGmAWZKrMWz3P9XvvRFVwLLZwThSQ4Q4Cwk401bGKObRhhkpylGQJ09QFITFMEIUAR2BCCQTU+tvhdtRuCfH3us6gVcKw6hRKSzMfdUpLrMaYyD/BplYapDVk4/jFTPTDEjBAi6dO9RU/u4UkHArywkaaZkQGEaaM7CrWzWFz6CQw9OM4KwYo2/UfmuIkbAhuUeRlofAbp3bQPnAoHGCGRD+ECgMgJbmptGlBojiKkueW6+w3ekSkJWWScwzycFRzbb7HWuK3KsaEutGzzn8yuXLzEHfvjDbkxxFBYBQUx16Wc44ryutjFOeIBQ2IQDJNYhS76TjscIhqrNoXDro4wQoc8EQGKRlDIRCFcAgpG24UXKR4BpEAMCriWCohwgIFZODfxYPQIxDWAnKSD48he/4PLeY4xA7oVCmUQNUoxgVNNwQ4uwmI5A2FIOI9Dk1zLOjD8JWbQbk1MlZ8PU4z0y91KfkWuSkEWthjKqCV9gS59JGFrAt0h+nWMa5ABBTmMc+koOHj6iVfXresyFXKMUEPB9AlQW8l+CyDTFpPONxgg4STANiDCk6rQtWb7CLF1+QdU+AhYGfgpMg+//4IeqoOhLX/i8AwJxdvG5mI+gyDRIAYGMDSW/aESZiqjQ6r0oIavvwMHR/Il6LrDYtaTiEM/DGHECAwT97P383cqWKxW7VHO/sgYlQ9FnV5zmRUCA/FrEVqnMzOLq1637YQgwy3xrrfJ4X7V+AH/MSgEBuXHs15XLlrj7YVJkYnwggBGEzkJ5Hz6COTOmOSCIxdzlFAYEAAON0mObkpwijCDWAZZ74F4AgvA6ojQECCgOIfcnQMDzyTNRVguJccwOluuOGjHMULUmxQgAAnwEoWnQHFqNZGaKWcCfz1t9xvGdu1ZcnaeaDSfzC3AP6Hua6XnKyc2+DX4nLEdKtNdjYRfdp4zTUlu6WxglYOR77ovk16nGOAIMeY1xisvgAwTUhYyVwS961qLflwIC/4vT7mUuu3hVsogHmw46rjIC6+HFR3DYoYckGQHeU8yDVNTANw1iQADjEEagXeeLAEGEETARAkoAAabBY489rt5PCggEUL4FECQYARGVBXNmt0jIksX5A+vnoA/BxvALyFhJSDhUXfrmYJfuPV1rr40BBMwJ5gCZq+KTknmSiEoWENSlMU5rIAgZge8jqOe8lQIC/sk/sH9fc1rvXkk9fREQ4CyEEQAEqahBERDssft7XPYhhRvV8KEFAswUzBWNEQAEVJINGQE/y3Wpr0enmBQjGDl8qKGgZUpZqAGB3Jur1WDDh5KZyT0AcLRSp5NyvTebMDrZTM1254baEZrYik3HvVCApE//gXW/r/A0lLmhGQgMLmZSChDk5GFojXEEdFONcYRJxsrgh85Cv1Ve0Qmf+/vSQMC/wUED+pm+p/ZuprYxGk3MvmnU6UkfwVzrLCwCAr/bjZxIvm2VAwQsGEyDGBDIpqKmvACBXF8mVBjBo4/+0Xl///TnP6uMoGnYUEOJa19yKtcRGv1tmwE42poGmo/AT8jiu1+wSVPH2rRhpM31eGkbPwQY2Xgx+bXv0NWqSNXjXsNrIF2nw7PkYWjS9CL5tUvIghHY62k+Ajz4lBhLlcHP7YdB0hHVr+vxKh0EZKEMsoygb59TWyz2kA7hoXemgY3h+3RI/o7NOXvGVEPjihgjEMqnNbCQe6GrCxWKUowAICCUibZBMw00IOB+RVAEI+g3aHDSNBAgSGUffvu7dzgfQRhRaWYENiFrFv4TG1rVGoBWuqC4dnjik/h1+Kc/ZZ60pcRi9RzlfgACVJeh8EkYAc9Ct+Jqeh5U+hykJhNRKZJfFwEBRW8pBxfrhyEM0PXDUBrjyLPG+mH4Zso/7TWOsw1GpFxbpc/bihWVESIMbyIEAn+xh6deDiPANPj4YYcmnYVFjMABAaaB7fummQZsuFEWCAhpakBAJ1oop7CbGMsBCAZaRkArLu06I4YOcQ41CWX6ICg+AoAAYNIYAWYTNvB37rgjWouh2sVEgg2y5c8c/mnnpAU8Aepq5NfCzmhIQv4Fbb3aEghkHHMTsnIa4yDjTnbIymAEIRCIU5exqDdTKp0JyMKTxT+wX1/T77Q0I0DFh4OOWgBRRmCdhZx6n/x4mhFoXXblXt7z7nebpYvmt2AEcr+i3GPDsfGQPWv1CACCqbbtlJycGhCw6FOmAX3wEIekGIEmv5ZxQmK81VZbutqIOa+YA0r+jRDkMUd/zYUiAUt5CQtzodUi+TWMIMjMlLF91lbxGdY02unx2xIIZL4ZGxiBn4ch/itfbFXUD4NSaChSkx2yKmyMIwzpqaf+Zo6xtRVhFPUKpbYbEPDtcgGCFCMACMj4S5kGs2wTzBgQ+PZnDhDACN71rp1UQRGMAPrKBkwxgulTJkfDh+IjgAnACGAG2nVSQFAkv87Z9LLoRe8QypTl94whMlrqEeBzYAy4Zz/Uy99z5NexPAyxq7GjqciM30PuqV6L3x8PGe8UI/DFVkVAkDIN/Gcr6pAlZfCldVtb5H+UDgLhSSOTQTy5f98+SR8BmX4AAYzA3zRyTdSHmAaf/MTHk+FDmlhQnETbeI4R2KSjlGkAJYcRQMk1RvC5zxzhGIH05BNGEEYNikyDYUMGmd49TkkyAnwV3E9MYyG+Fn8TaM49NgWe7XCe5GccqcsWLVTzMHhGX36tjU1Mfi2bhT8XLV3mmo34h0UuqOW+zzcNiKj4RW9jjCCnH4YUR02VuCsqgy+9F/ABHG0duvVkAe652oNPQAMCQAAwCIsxcOPiWPOBQDMNZk6bYj71yU8kQ23UK6RuoQYEZJoBBJS/lu8WRaDYsdwnjAAgCJ9JFj9AgI9AdAi+aSCMgLAh4cMUI0gBgc8ICGeGzsKiTYE9+zFb7BUH36EHH2yuXLeuUHWJI5VOQanMTE1+LWMDEKC6DJ2FsvFhf5OmTI1Kr4ueSfu9Bm6AH6ZB2Y1xZD2SYMa4xFKeq312+VwpINB8ilil3hbW0UGfP23zxYAgjJ1SMZjuQpqPwGcEKR1BERDQyJLFDhBoi90xAoBgA331qas842cBgggjYFIECPAN4CNIAsHggaZ3zx7J0Komvw6p8K677GI+ZG1ZnHto6end4L+K8jBogcWpl8rMdGKrgoQs8jDIzBTqLyAp40JYjCo66CN806TWjRCyIuaNSEc9GuNQBh8hWqofBiXuqGwVK4Mf88vU9XnLYAKyGQhXnXv2WS5ERjUeDQhwFOInCB1iPiOgLBimAYMZYwR0xJk59XzzadseKyW+uXD1RWaeLWmuMgJb9hqpaQwIhCGgeDuxy3ppbPiS637miMPNdMsIkKqK00eYhQBMDiOg6y9a/JSzECCIya9lEwGSnMA4MOUljjAZS07rojyMesmvYwlZ3JeMC39fc+llbp7EFxEb65yNAtX+pk3TxvfgrxvfRxCaBr6/RARFRf0waIwDEFTbD6MtgaBUJiAyUkQr6Omp2KttPjQEaAliohkJkRUxAoBgVsI0kNOmEAisacCpt8vOO7dgBLKJkXd269ErCgJCbfkuTl2chSEQ+IwAIGBskBprYzNk4ADTp3fP5NigDeAUDn0EslE49aZPnew0Fin1XBEQkKJdJL/+D2KrDQlZ2jPFErJkXGQMiRqQWh3LzCwCAPleclcIRw6yVaC0PAwnv7a1GmJl8P2oQREQ5DTG4RAbPjLeIavomar9fSkgIBNAKObC5Uvd4qb6DiqoJBBYVSHqwtBHwOYTIKC9GL0E6DIUYwScevgIaJiZEhTR95B4bCWMQE4qQKDrKT1VEMgBAl9Q5BgBpoFVGBYBQYoRFMmvEVtpGgt/sRcmZO2O2Gp+MiErR2MhCVmyuCXEynyL3yOVh5HaFDKOMywII+qisOt4W3Y91FjI+0L5taYshJ1wiGjz5BrjFBS99RvjtCUDkPEpFQSkqIjQaPLJkdHGEkhkUJEXh0AQCooAAuLLmo+gyDQQRpADBOQaYE/7wJQDAj4QHGEdcDOsqZJiBCQbMTbUJdAW2OCB/VvlYYRjozECWWwAgSa/9kOrhXkY1t/DYq82D0OekQ2K/8QHgtAnlJJfa0Ag1+dA+Kw1zfgZPw7ir5ARNAMBHbKUxjgtGEEhEFjTIKMxzpjxZ7is1bYGglJBACYgRUXkJMc0gBGkgICEIxZ8ihHgYKHfoMYI2HAsADZgqh7B6osvMYSCUoyAUw/TAKoNwOSCQAgEmAYwlZSPoMg0iAEB3+OzpUL5tX2G2TOnFcuvbS1HSrlpY0P4MGQEvs9B2A7+ClSXWvhQy8z02RJA0G/wkKj8OgYEcs9koLIG0DMAgDgcKeyqya9zG+MUdcii6C0mZawMvmgCpP26zF+1dL/oc6WCgF9ejAlt9gDbeCj0l0IT2gITIEg5C4uAgA3HCcwiSDkLi4AAJgAjoFcez/DgQw8ZUmJznVWy+DFRAKYUI8D+ZWxSjEASslJiKwcEiK2Ung8p08BnBEXya5eQZdVzorEQSi/zzZ+5eRgaI2hOyLIiK011qW2E5YsXunL2XIP/WRM5jEBrjOOPTTWNcWTNoJbs1qO3yzJ9TTIBeShAQCoL+TF3NgWmASWnUkCAMwynWMpZSGoqqiy8vz6g+F5vNh5OuloYgQMCS3/RE9BIonuvPtkg4DMCohcA0xsSjCDHNMhJyCqSX8NqZm+QX6fGpggIchKymEM0DSn5NU1SKNoiQCLhwxZiq0RmZgwILrt4taH/gCgj/TyMWEKWrBsYwbxZtTfGCRkB98j6RxYPKwkPwaJTvZrfl8oE8LZS6FEmgAfwJxSFVBEjiAGBDIT4GshmQ0egAQHoT7iOsF2MEchJc9GaSw2yTY2dcNpRPfm///mv+dpxJ1Q8H8IIAALCmSnTAEcqxUupZqzdjwBBii3VKr+WTVOUmYnq0pdfh0VbGCzuU5Nfy9gQxtTk13IvyK8xm2IJWbLGOHQI2120crkzAwSIfadjUUIWEZV6NcaR6tfcB81QKHi6MQDAjUcZOgFBU07NtZeusb3w3tgiB5sbk41HosugYcPNbx98SF3sfs06ri0nBNeRhXHXz+82Q0Y0JX0EeIqLgODiSy41ZJKpdrB1iKFpOGPC2Y5qV/qS66JwhKGEjMAfG0wD2FJKYxFLyAoda6guyfjT8jCKGIHEyovyMHIyM31GoI1xKiHLNw2K5NdS6DMVUUnJr3luMjPREVAGP8WWihrjILbiAAHciSwxDrnmZKVrLHx/KSDgozGpp4SlQiAIGQGe8ZSyEOXcMKugS0mMnWkAI7AZWDHTAFscRoCiL+UjQKhCbnm4SAXcWBjcB4uimlcREPhjQ4cjTr0UI4glZIVsKUd+7RKybB5Gii0V5WEA/Mts0pEkZMXKuAkj4CQOx9hnBJKHoTlSUV3ClmKMQOYqNw8jJr/2TYOsxjgFHbLQEfznv/8xD9t+lm3tB/DXZWkgIPQLtEM5CK1i80jSiJxWvlyUqMFvH3xQPYVJqmFSUz6CejGCIiCoZvP7n5HFz6Zj86UYAacHIMni0U7PWEJWK/m1VV0CkklGoACBHyIrAgLk1+RhVAsE8oyShxH6CHy2lMrMbAaCiPyaa/gRFaIXhA+1oresXSoUVdsha2Nu+nbDBORGZEIBgtkzpru0VB8IQkZAf7+UaRADgvDUo7zT0BHWWagwAldy2poGLLIkI7jsckP9ubay3VoAAaaBddSFp574PRwQ2KhByjTQErL8xV6L/Fo87DCqojyMHEbgErJsIdWYg6wICPzwIYyg38AhyVoNsEjYZMo0KAICV/1a6Yfhg2QqD4O58PNNaj1Mcj5fKhOQGxSKB4rOnTU96SOg5DKMgIKL2qlH4Q3y7pOMACCw9d5CzbggsutGY02DIiC45LIrXEPLNgcCWyAFTz1AoLGlHPm1AEEqfFgv+XUOEPjy6zB8KD4d4vYpIMCPgz8nlpkpPiGXkEWthoTqUvIwYvoTUSgWNcZJdcjyw4civ87ZpG39nnYBAr5pgIMFNMXzqjICm0lWZBoIEIhzJeYspHQV9d7Il4/5CPg3GAGOqJTTR4CgrShdMyOwQOBMgwgjEMlyjmkgCVkbQ36dk4chKdpaZiZzSNSAXguaoEgSsmK1GoQt5WRmSh5GUUJWbmOcVNbqhRddbBYsWtLcgautN7t2/XYDAiEQzJ05I2ka/P3vTztkTzECavJRmy/lLAQIhoywjCBhGuCAIkadMg3I86ZrTVsxAln8VEqidBoddTVGkCW/3pCQlVrsMALyMDZGZqYvv46FD3lWui4BBJqzEK0HERUBfB/4xbeExoKwc05CVmxshBFomZm+cxj5ddgYxw9BMr5D7drjgNnYJkC7cQz6UYLQR4CKC2dhyAh8pw+mAdlfyHQ100CAIMUIfnHPva4RR4oRYBoUAYHEd9uaEZDpN2v6FBff9n0E/tjkyK9zMjN91aUWUYGdoHZMsSVOPbLstHlCbSnyaz9lWJ5JxpRqSSlGgPqznvLrFFtyCVm0yktUv5aELBkbH0RIfefnsl+lMgGZWG1haEDgOwtzfATU7adsd4oR3P2Le5xpQNuo2GLndKKPAAktKUawsYCAasosMIBAM5vQWHDqVZqQFTpSi4AgV35dBATkX1DYFfWlUHhfSSqAMO7Ms1w58hQjiKVotwitWo1FP1u9KcUIYvLrMGpQlJmJj2C2BUnmC90IDE7rvF0WGJQCArL5SSBCJHHV1deoJwSdc+bbMk8pRoBpgKCIfm0aoNDJh44+KWehzwj809wHK/TrRUAguQZtzQhotCJAoDGCHPl1KjNTHGtoLIY2jcxKyErpCIoyMwEAqjelgIBnxTSgQ7M23zAT5Neh6tJnS1ny60hjnFZAUNAPwxdbIYuGzVRa8q0tAaIUEJCJo5Aj9QTOmTTZXHv9DarTxwGBVWWR0x06j+TnHCCgySc9/lKMACBgsT/3XJwRcO8wAjLbwsUu1+V0oTlEWyq+ZAwFCEKNhX/q5TCCnISsLPk1qktrm9eSkEXVpmWLFxQCwVgYwTe+WTEQ+OHDrISsDY1xUv6TosxMwofdunSyFZEub2U+tOUGz7l2KSDQnEC0335mtdVu87PWG08WO0BAc81QR+Aj+9O2rfUg27mVnu7aCREDglA0c8+999rrrPcRaIwgBgSSAwEjObln7zYFAd+RivMJJ1RKbAUQIDFOqS5zE7JwpGrOQkKrnMAaEOTmYWAa4CPAVxCLGshpXAQEWh6Gv24AApzMOarLlI/A5WEgvw4yM3M2YpnvKQUEZINiDqCXFip77uQp5uprr9MZgU04QpVFJVjNDoYRDB5eAARdu5hRTf8rJyXxaSZCbFFKVw2xzkKNEQAOZLRRD0+cPvIcldQTqHXym8VWG+TXAIEmowUIBgxJp2jH8jBCH4Evv46BZK78uigPw2cEMWeh3BdAQGUgLXyYysyU+UZ+jcQ4laKdUwbfz8wM57atIke1rqFSQcCvJyAn26Tzp5h111yn+wgsEMyfs9400EJkz9hcbHQE9z/wgHodSjiPbhqRNA1gBJx6KdOAAp0AAYuJDcFC3JggwLjJ4kd1SZ576Cz0Tz2q9ZJYszESsnLyMHKAAB0BCkOAICYoAvTG2YQtgEBjgCRkUV8y5SPIUV0KEKTChzgLAaZ69weodbNrny8VBPzKQkLJmURhBNqEUgseHwFtozRGsN40aMoCglT48N77fukYwbPPPReNGjCw6AgAAnTlLDLyGyopKlKPyW1mBPWSX0cSskKzyZdfa2YTKdEkZKXCh1oehjyTMw0o2rIBCGJJRw4I7Ma7LcEItMzMMCELkMypfh2aBqwjipYSAVi77mozeer0jZoIVO06KgUEmn0CG4qKSBjIB4JJ50+1jOBaFdlxKgIEKdMghxHgrBkzsinNCKxpgMQ4BgQMPM9DrXyaZ7AQOGWLCo1WO2Gpz/mMANVlKjOT0CrZh8mErIzMTBKyELxUK78WH0EREJBsBCMg+UjzETA24y0juPXrt6vhQ2EERfJrQquphKxQfi3p1NzDjTffYhYuXupav5cpAspdY6WDwKoVS5vv1T/5+XsREMAkFtpS0ACBFjV45plnHCOg2o/GLAQIUozgl7+63wmTNEYAENBqm5bbmCEn9zy1zR2DsUmWZyQPAyDAkeqPTWvToPbMzBz5Nc5C8jBCRuAnL61RErLkmfARED70gUDGwI/EaEAg13GZmUpCVjXya/Er4Eim1sQ1112fu//axftKAYFmj/+GykJi67GRZJGKj+C8KdOSOgLfNEgBwcChOAt1H0HXzp3M6aPSjOC+X/7KmQYwjFBQxP2yoBGG7LXnnuZLXzu6tAmOAUEsnAlzyGEEsYQseTjZADnya1SX5GGkdARFQED1JhgBlYo0QRH3doYtH37LbV9XGYGkaIfya980QGNB8dIUIxCNBWuDCJcIs8rIBqx2wZUCAkKht912W1eXjxpvsjDkd/6pjG2FjaWd5DgYF81bzwg0ZyEn+GAbPmSytOvEgCC0g2EEhNo0ZyGecZjF2nXXuDBaWS95RlqKnXvWBJe7LwtTnGsCmjny65zMTFSXyK9xiGk+AmEEKR2Bn5npbyZ5Jp4FH0EuEGhRA+TXs2e0Tsjy2VJKfi3PiDDpp7aEHfPdXiMAqXVYKggwwfRwXzRvrj09P9SM7CHFY2AFCLQJxTSYP3uW2WabrXXTwJ7gAAEbWQOCLiedaMaOGZX0EfB5FjumhjbpbaUWrARU5N62224709+2cut04gnufn2Hlg8ERSnaOQlZWfLrChKywnGUZ6KfARJjgEDzEfDZM2xb85tvuVWdb5eQVZCZ6TOC8H78nzsiALhDt4wag7KQZQBZpDRj2HuvvZKMgEaUV161LskIFtrmEGHUwEd2TnB0BHj9KwECcV4KBXVAYAElNA2EybQXh5D/jDCmEUMHGf7kJWAgTq0c1WUMCEK2VMQIXB5GAgjEWagV3GwGAmsaUKCTsuYak+Q5zwQIbr1NnW8tD8NfN+gIqFqN01cDpkoAuj29t1QQELufSacd9qJ5AMF60wBaHWMEU6bPMFesTQCBVSHSJWbbbbZRGQGmAbZ9Cgg6n3SCGTdmdLNzj4UXAgE+BnwNKUbQHiabRcv/Yiode/RRpqctvIIaT8CAZ2PMc0yDWB5G6CNAYzHYRlS0hCzGMycPQ0vI8hkBzkKKmGo+Ap8RaEwSIMCfE2ZmigqU76NUWbdTejnn8GvpVToI+ECwnfURLLKMYJ+9944iu5xYOUBAA0lMA01HwOJEYlwpEISLnagD0Yf2DgT+OPN3/CcnHX+cwQ/yjne83T2WdFBCY0EZt0oTssKxKUrIYkNOsWKrWB6GHzUoYgToWmiRAAAGJElEQVQ7vvOdzkdAV2RNUMS9TTjnXHNTxDQQYCAPg/R1nIX+QUQ7O8J++KV+Z+s48h2vpVe7AIEWQGBNA5x8AgQaI5g6faa5fO1VKsXbf799XSfZFCPANIARIBHWTAONEcgJyv2Rq8Cm6QhAEIIBpli3zieZ44452rXE4sUG/JtVFqKWzAGCVGg1R34NIwAIUoKiy69ca6bOmKVScXwEFCYR00BbN0QNAAKNEQAEs6ZNdaFVcgBusWYEST80yn2tvtoNCPiLk41Le2uNEch7WRQsDm0D5wJBkY8Ah9r400cnnYWYBjACTtGO4iDy7xMH7ZFf+Yo5/tijnbONF6DW1xboTAmKcjIzc+TX5GHQhTgVNQD0AX9tvt+5ww5OR0B79JSP4KyJk9zJHl6nuXqT1RHg8b/sirXNm18iKm2ZGVoWyLQrEAhNA07y/fbdJ2rriWlApxboorYw9t1nb2tizE0yAkwDTj3oq3adk0443pwxdkwrH4HPCDg1YQQAQUd5+f4C7pkEJGL5xxz1NUPmJtT31H4D3NhoDjEBgiL5NWCbSsjCWZgLBNq9YBpwgAgQxBgBzynOwiInn/iC2oujty3WVakggBefmLI4X3zZMP+Gj2ChdRaykWMFGwU0ioAAIFlgC5NAfTVBkTMNLBBwamlAIB1r/MUe2sEAAdehhVp7CBPmLpoQDPjcnh/6oPmqVUAeZLUG02fOMeQKqECQmZlZJL/2E7I4mUVA5vsIcAzjF9LuZYcd3uEERT4jEL2BOEB5PtYNTFJMIBkrOfX5+bV48odrohQQkE1GHvyx9sQh40oDAkwDGAHU3qd4MnHCCCjySbHPHEagCYpgBJQYI8SVCwSySLkfqR9HOimMoKO+wmdnDt773j2cviLWVUne330DEKQYAWItqkDlZmZqQEComJBxeFLLvWAawAioXBVGm/Ducx9k++Hsey2f8jlrsBQQEARnY1984QXOPoOehS+ZUBYhjIATnUUoZaUFqZlEsvfER6CdEPgYcDrCCMLryEJ5DiCwJzlRA+06Jxx3rJkwfmxzO2s5OSTujhOp88k9OvwpUokdLHPlp2gzL3INkeNCz1PyawnDwghIyEr5CAQItHUDI6DlGVEDWnz/7K67zY9+8hNzly2VRii08Vo/AqWAgCwY6UrMjVDCebz13JKE4SOzvJdwH4zgAKsDSL3o7rJi5apWtdzlOj4QaNfh+6H0nBRFQBC7BhVq2rq82MZcwD4lT32vjLEkZIXvdam2FsSJxeNjIESLOei/5LskIeurX/6S+4xP0Z1pYK9FKI9kHRgBYBFbN4Q/3/++9zl2R6gvpPybAt0vWiulgIDc1Nu2396Q2skJuvXWb7FA8EMnyNCQHSCgbJXFrshzver+bYstXm8TR25zBTG162ArfviA/TaUe255LWEVz1qJMaWtY1Sx2Zyxufs721z3l176rwULxESvWJayhXMMUlByU6SZMjb4Ej5uw2277bqr2WnHd5qtLZtj0/ovwHKwjahwSvtj5QPv+TZFm2vFXoDDKxYQFi9dZijumpL08nkBEj8foWiDbAq/LxUEKhngejnZ2tt1KhmDjvLecIypawAQ7Ghj+dtbZej2FvwB9HdbgHjodw/bvoWrnekUAwI27sjhw1wC1F9tv0Vk2sibn7C5+k9a5+tf/vJX88K/X4iCPuMVc3h2lHHcWPdZOgiENC91esqEFg1OEcWr13X8e49R36L7fC3/vhJ/wmt5HDrCs5UOAh1hkBr3WPsIaIBZBNg+jY/dRYPa1z43DRCofQwbV2iMQIcegQYIdOjpa9x8YwRqH4EGCNQ+ho0rNEagQ49AAwQ69PQ1br4xArWPQAMEah/DxhUaI9ChR6ABAh16+ho33xiB2kegAQK1j2HjCo0R6NAj0ACBDj19jZtvjEDtI9AAgdrHsHGFxgh06BFogECHnr7GzTdGoPYRaIBA7WPYuEJjBDr0CDRAoENPX+PmGyNQ+wg0QKD2MWxcoTECHXoEGiDQoaevcfONEah9BBogUPsYNq7QGIEOPQINEOjQ09e4+cYI1D4CDRCofQwbV2iMQIcegQYIdOjpa9x8YwRqH4H/B5zZ2Ty9/wzWAAAAAElFTkSuQmCC;" vertex="1" parent="1">
          <mxGeometry x="139.78" y="188" width="120.22" height="92.62" as="geometry" />
        </mxCell>
        <mxCell id="9GOgxKpE9WdlAdHBGfbr-51" value="subscribe" style="text;html=1;align=center;verticalAlign=middle;resizable=0;points=[];autosize=1;strokeColor=none;fillColor=none;" vertex="1" parent="1">
          <mxGeometry x="396" y="380" width="70" height="30" as="geometry" />
        </mxCell>
        <mxCell id="9GOgxKpE9WdlAdHBGfbr-53" value="" style="edgeStyle=orthogonalEdgeStyle;rounded=0;orthogonalLoop=1;jettySize=auto;html=1;exitX=1;exitY=0.5;exitDx=0;exitDy=0;" edge="1" parent="1" source="9GOgxKpE9WdlAdHBGfbr-37">
          <mxGeometry relative="1" as="geometry">
            <mxPoint x="503" y="105" as="sourcePoint" />
            <mxPoint x="600" y="230" as="targetPoint" />
            <Array as="points">
              <mxPoint x="670" y="95" />
              <mxPoint x="670" y="230" />
              <mxPoint x="600" y="230" />
            </Array>
          </mxGeometry>
        </mxCell>
      </root>
    </mxGraphModel>
  </diagram>
</mxfile>
